<?xml version="1.0" encoding="UTF-8"?>
<svg width="64px" height="29px" viewBox="0 0 64 29" version="1.1" xmlns="http://www.w3.org/2000/svg" xmlns:xlink="http://www.w3.org/1999/xlink">
    <!-- Generator: Sketch 48.1 (47250) - http://www.bohemiancoding.com/sketch -->
    <title>Fill 1</title>
    <desc>Created with Sketch.</desc>
    <defs></defs>
    <g id="Search-&amp;-Filter-Candidates-(Paid-account)" stroke="none" stroke-width="1" fill="none" fill-rule="evenodd" transform="translate(-21.000000, -25.000000)">
        <g id="Navigation-Bar" fill="#4454FF">
            <g id="Page-1" transform="translate(21.000000, 25.000000)">
                <path d="M59.4839742,8.09037419 C59.2772645,8.09037419 59.135329,8.09476129 59.0581677,8.10327742 C58.9892645,8.12908387 58.9332645,8.15050323 58.8901677,8.16779355 C58.8042323,8.1936 58.7268129,8.23643871 58.6581677,8.29682581 C58.5461677,8.39153548 58.447071,8.5376 58.3611355,8.73553548 C58.3180387,8.83024516 58.2625548,8.98069677 58.1936516,9.18714839 C57.8235871,10.1592774 57.0666839,12.1032774 55.9224258,15.0194065 C54.9848774,17.4366968 54.2279742,19.3763097 53.6514581,20.8385032 C53.6259097,20.9505032 53.5528774,21.0065032 53.4323613,21.0065032 C53.2602323,21.0065032 53.1699097,20.9419871 53.1613935,20.8129548 C51.1312,15.5742452 49.6086194,11.6557935 48.5936516,9.05811613 C48.4561032,8.75695484 48.3355871,8.55050323 48.2321032,8.43876129 C48.0945548,8.32701935 47.9655226,8.23643871 47.8450065,8.16779355 C47.6904258,8.11618065 47.535329,8.09037419 47.3807484,8.09037419 L45.5742968,8.09037419 C44.8256516,8.09037419 44.1980387,8.09476129 43.6904258,8.10327742 C43.6388129,8.12908387 43.5828129,8.15050323 43.5224258,8.16779355 C43.3417806,8.23643871 43.2042323,8.35282581 43.1097806,8.51618065 C42.9461677,8.75695484 42.8772645,9.01501935 42.903329,9.29037419 C42.9203613,9.40211613 42.9546839,9.52263226 43.0062968,9.65166452 C43.0752,9.72908387 43.1397161,9.85372903 43.1998452,10.0258581 C44.9461677,14.077471 47.591329,20.1463742 51.135329,28.2323097 C51.2212645,28.4299871 51.3549419,28.5763097 51.535329,28.6710194 C51.7159742,28.8000516 51.9095226,28.8645677 52.1159742,28.8645677 C52.7010065,28.8475355 53.5699097,28.8385032 54.7226839,28.8385032 C54.903329,28.8385032 55.0666839,28.7739871 55.2127484,28.6449548 C55.3848774,28.5419871 55.5053935,28.4000516 55.5742968,28.2194065 L63.7159742,9.54843871 C63.871071,9.19566452 63.8881032,8.91618065 63.7678452,8.70972903 C63.7074581,8.51179355 63.5784258,8.36547097 63.3807484,8.27101935 C63.3288774,8.22792258 63.2772645,8.1936 63.2259097,8.16779355 C63.1139097,8.11618065 62.9848774,8.09037419 62.8388129,8.09037419 L59.4839742,8.09037419 Z M39.0708129,0.851664516 C38.503071,0.283922581 37.8065548,5.16129032e-05 36.9807484,5.16129032e-05 C36.1892645,5.16129032e-05 35.5182968,0.283922581 34.9678452,0.851664516 C34.3828129,1.41063226 34.0904258,2.09037419 34.0904258,2.89037419 C34.0904258,3.69037419 34.3828129,4.37863226 34.9678452,4.95489032 C35.5182968,5.53114839 36.1892645,5.81940645 36.9807484,5.81940645 C37.8065548,5.81940645 38.503071,5.53114839 39.0708129,4.95489032 C39.6300387,4.37863226 39.9095226,3.69037419 39.9095226,2.89037419 C39.9095226,2.09037419 39.6300387,1.41063226 39.0708129,0.851664516 Z M38.671071,8.09037419 L36.9678452,8.09037419 C36.271071,8.09037419 35.6945548,8.09476129 35.2388129,8.10327742 C35.1957161,8.12908387 35.1397161,8.15050323 35.0708129,8.16779355 C34.9162323,8.23643871 34.7786839,8.33553548 34.6581677,8.46456774 C34.4860387,8.65372903 34.4130065,8.87308387 34.4385548,9.12263226 L34.4385548,27.7806968 C34.4130065,28.0733419 34.5206194,28.3223742 34.7611355,28.5290839 C34.9505548,28.7525677 35.1872,28.8645677 35.4708129,28.8645677 C36.5376516,28.8475355 37.6042323,28.8475355 38.671071,28.8645677 C38.9376516,28.8645677 39.1828129,28.7525677 39.4062968,28.5290839 C39.6130065,28.3223742 39.703329,28.0733419 39.6775226,27.7806968 L39.6775226,9.05811613 C39.6775226,8.78276129 39.5784258,8.55050323 39.3807484,8.36134194 C39.2687484,8.27514839 39.1570065,8.21063226 39.0452645,8.16779355 C38.9247484,8.11618065 38.8001032,8.09037419 38.671071,8.09037419 Z M24.8772645,0.412954839 C24.7226839,0.610890323 24.6537806,0.821470968 24.671071,1.0452129 L24.671071,27.7806968 C24.6537806,28.0733419 24.7441032,28.3138581 24.9417806,28.5032774 C25.1226839,28.7440516 25.3461677,28.8560516 25.6130065,28.8385032 L28.9807484,28.8385032 C29.2300387,28.8385032 29.4452645,28.7270194 29.6259097,28.5032774 C29.8065548,28.2968258 29.8968774,28.0557935 29.8968774,27.7806968 L29.8968774,1.38069677 L29.8968774,0.954890323 C29.8881032,0.791277419 29.8496516,0.645212903 29.7804903,0.516180645 C29.6775226,0.378632258 29.5699097,0.271019355 29.4579097,0.1936 C29.3203613,0.0816 29.1784258,0.0258580645 29.0323613,0.0258580645 L27.5224258,0.0258580645 L26.0001032,0.0258580645 L25.6904258,0.0258580645 C25.5699097,0.0258580645 25.4752,0.0387612903 25.4065548,0.0645677419 C25.1828129,0.150503226 25.0062968,0.266632258 24.8772645,0.412954839 Z M7.80655484,13.1613419 C7.61894194,13.6256 7.39545806,14.0859871 7.13532903,14.5419871 C6.52990968,15.605729 5.78590968,16.5391484 4.90332903,17.3419871 C4.44113548,17.765729 3.94203871,18.1528258 3.40655484,18.5032774 C3.36345806,16.7311484 3.80655484,15.0235355 4.7355871,13.3806968 C4.75287742,13.3548903 4.76552258,13.3290839 4.77429677,13.3032774 C5.69455484,11.6859871 6.93326452,10.3915355 8.49016774,9.41940645 C8.52165161,10.6921806 8.29352258,11.9394065 7.80655484,13.1613419 Z M10.8388129,14.7613419 C11.1482323,14.0545032 11.3848774,13.3321806 11.5484903,12.5936 C12.6542968,12.7961806 13.6261677,13.3164387 14.4646194,14.1548903 C15.5570065,15.2472774 16.103071,16.5719226 16.103071,18.1288258 C16.103071,19.6862452 15.5570065,21.0106323 14.4646194,22.1032774 C13.3634581,23.221471 12.0344258,23.7806968 10.4775226,23.7806968 C8.92036129,23.7806968 7.59571613,23.221471 6.50332903,22.1032774 C6.13171613,21.7345032 5.82203871,21.3388903 5.57429677,20.9161806 C6.40371613,20.3770839 7.16500645,19.7536 7.85816774,19.0452129 C9.1828129,17.797729 10.1763613,16.3698581 10.8388129,14.7613419 Z M11.7159742,7.69037419 C11.5822968,6.76753548 11.3544258,5.85140645 11.0323613,4.9419871 C9.19984516,5.44082581 7.51829677,6.20650323 5.9872,7.23876129 C4.47313548,8.26250323 3.21713548,9.49682581 2.21945806,10.9419871 C1.27313548,12.3613419 0.610683871,13.9053419 0.232103226,15.5742452 C0.154941935,16.0302452 0.0945548387,16.4945032 0.051716129,16.9675355 C0.0171354839,17.3468903 0.000103225806,17.7339871 0.000103225806,18.1288258 C0.000103225806,21.0194065 1.02797419,23.4926968 3.08397419,25.5481806 C5.12268387,27.6041806 7.58694194,28.6323097 10.4775226,28.6323097 C13.3848774,28.6323097 15.8666839,27.6041806 17.9226839,25.5481806 C19.9613935,23.4926968 20.9807484,21.0194065 20.9807484,18.1288258 C20.9807484,15.221471 19.9613935,12.7399226 17.9226839,10.6839226 C16.1642323,8.94018065 14.095329,7.94224516 11.7159742,7.69037419 Z" id="Fill-1"></path>
            </g>
        </g>
    </g>
</svg>